# xmcd CD database file
#
# Track frame offsets:
#	150
#	9465
#	22527
#	32485
#	40737
#	56157
#	72430
#	82367
#	95790
#	107112
#	120885
#	131730
#	143870
#	155765
#	169172
#	185197
#
# Disc length: 2601 seconds
#
# Revision: 2
# Processed by: cddbd v1.5.2PL0 Copyright (c) Steve Scherf et al.
# Submitted via: CDex 1.70beta2
#
DISCID=de0a2710
DTITLE=Various Artist - Platinum Vol. 8
DYEAR=1969
DGENRE=Rock
TTITLE0=Lovin' Spoonful - Do You Believe in Magic
TTITLE1=Ben E. King - Stand By Me
TTITLE2=The Champs - Tequila
TTITLE3=Tommy Roe - Everybody
TTITLE4=The Staple Singers - Let's Do It Again
TTITLE5=Al Jarreau - Use Me
TTITLE6=Little Anthony and The Imperials - Tears On My Pillow
TTITLE7=Gene Pitney - 24 Hours From Tulsa
TTITLE8=Dennis Yost and The Classisc IV - Everyday With You Girl
TTITLE9=Beau Brummels - Laugh Laugh
TTITLE10=The Rivingtons - Papa Oom Mow Mow
TTITLE11=Bobby Hebb - Sunny
TTITLE12=Mary Wells - You Beat Me To The Punch
TTITLE13=B.J. Thomas - I Just Can't Help Believing
TTITLE14=Oliver - Good Morning Starshine
TTITLE15=Lovin' Spoonful - Rain On The Roof
EXTD=YEAR: 1969
EXTT0=
EXTT1=
EXTT2=
EXTT3=
EXTT4=
EXTT5=
EXTT6=
EXTT7=
EXTT8=
EXTT9=
EXTT10=
EXTT11=
EXTT12=
EXTT13=
EXTT14=
EXTT15=
PLAYORDER=
